# xmcd CD database file
#
# Track frame offsets:
#	150
#	13921
#	35667
#	48173
#	61061
#	76735
#	94979
#	112123
#	125345
#	147850
#	161596
#	180527
#	195302
#	212579
#
# Disc length: 3056 seconds
#
# Revision: 3
# Processed by: cddbd v1.5.1PL0 Copyright (c) Steve Scherf et al.
# Submitted via: CDex 1.51
#
DISCID=b70bee0e
DTITLE=Carpenters - Yesterday Once More [CD2]
DYEAR=1998
DGENRE=Country
TTITLE0=There's a Kind of Hush
TTITLE1=This Masquerade
TTITLE2=Hurting Each Other
TTITLE3=Please Mr. Postman
TTITLE4=I Need To Be In Love
TTITLE5=Make Believe It's Your First Time
TTITLE6=All You Get From Love Is A Love Song
TTITLE7=Top Of The World
TTITLE8=Because We Are In Love (The Wedding Song)
TTITLE9=We've Only Just Begun
TTITLE10=Those Good Old Dreams
TTITLE11=Sing
TTITLE12=Only Yesterday
TTITLE13=(They Long to Be) Close to You
EXTD=0\n\n\n YEAR: 1998
EXTT0=
EXTT1=
EXTT2=
EXTT3=
EXTT4=
EXTT5=
EXTT6=
EXTT7=
EXTT8=
EXTT9=
EXTT10=
EXTT11=
EXTT12=
EXTT13=
PLAYORDER=
